<?xml version="1.0" encoding="utf-8"?>
<!-- Generator: Adobe Illustrator 19.2.1, SVG Export Plug-In . SVG Version: 6.00 Build 0)  -->
<svg version="1.1" id="layer" xmlns="http://www.w3.org/2000/svg" xmlns:xlink="http://www.w3.org/1999/xlink" x="0px" y="0px"
	 viewBox="0 0 652 652" style="enable-background:new 0 0 652 652;" xml:space="preserve">
<style type="text/css">
	.st0{clip-path:url(#SVGID_2_);fill:url(#SVGID_3_);}
	.st1{clip-path:url(#SVGID_5_);fill:url(#SVGID_6_);}
	.st2{clip-path:url(#SVGID_8_);fill:url(#SVGID_9_);}
	.st3{clip-path:url(#SVGID_11_);fill:url(#SVGID_12_);}
	.st4{fill:#515457;}
</style>
<g>
	<defs>
		<path id="SVGID_1_" d="M99.8,244.6c-24.8,64.1-2.2,106.2,16.9,153.1c5.7,14,4.6,32.8-3.6,43c9.9-4.1,16.5-8.9,26.7-19.5
			c22.4-23.4,36.8-74.1,16.8-111.7c-19-35.8-28.1-66.3-19.1-110.3C120.8,210.1,107.2,225.3,99.8,244.6"/>
	</defs>
	<clipPath id="SVGID_2_">
		<use xlink:href="#SVGID_1_"  style="overflow:visible;"/>
	</clipPath>
	
		<linearGradient id="SVGID_3_" gradientUnits="userSpaceOnUse" x1="17.2428" y1="719.7729" x2="20.2249" y2="719.7729" gradientTransform="matrix(38.1543 38.1543 38.1543 -38.1543 -28050.6875 27068.3418)">
		<stop  offset="0" style="stop-color:#ED2124"/>
		<stop  offset="0.14" style="stop-color:#ED2124"/>
		<stop  offset="0.4752" style="stop-color:#E96E51"/>
		<stop  offset="0.7343" style="stop-color:#E6A371"/>
		<stop  offset="0.86" style="stop-color:#E5B87D"/>
		<stop  offset="1" style="stop-color:#E5B87D"/>
	</linearGradient>
	<polygon class="st0" points="125.8,148.4 297.3,319.9 125.8,491.5 -45.8,319.9 	"/>
</g>
<g>
	<defs>
		<path id="SVGID_4_" d="M34.4,399.8L34.4,399.8c0.3,2.2,0.9,4.5,1.6,6.8l0,0.1c6.7,20.7,32.6,37.2,56.3,38.1H96
			c6.1-0.2,11.9-1.5,17.1-4.1c0,0-25.8-2.9-29-22.1c8.3-5.9,13.7-15.6,14-26.8c0.4-18.5-13.6-33.4-31.3-34c-0.4,0-0.7,0-1,0
			C42.9,357.8,31.8,379.8,34.4,399.8"/>
	</defs>
	<clipPath id="SVGID_5_">
		<use xlink:href="#SVGID_4_"  style="overflow:visible;"/>
	</clipPath>
	
		<linearGradient id="SVGID_6_" gradientUnits="userSpaceOnUse" x1="12.7818" y1="719.5985" x2="15.7639" y2="719.5985" gradientTransform="matrix(26.5162 0 0 -26.5162 -304.9243 19482.2969)">
		<stop  offset="0" style="stop-color:#ED2124"/>
		<stop  offset="8.999630e-002" style="stop-color:#ED2124"/>
		<stop  offset="0.5409" style="stop-color:#E87656"/>
		<stop  offset="0.91" style="stop-color:#E5B87D"/>
		<stop  offset="1" style="stop-color:#E5B87D"/>
	</linearGradient>
	<rect x="31.8" y="357.8" class="st1" width="81.3" height="87"/>
</g>
<g>
	<defs>
		<path id="SVGID_7_" d="M120.6,327.8c19.3,67.7,2.4,102.9-6.9,112.5c9.6-4,16.1-8.8,26.1-19.2c22.4-23.4,36.8-74.1,16.8-111.7
			c-19-35.8-28.1-66.3-19.1-110.3C131.2,208.6,101.1,259.6,120.6,327.8"/>
	</defs>
	<clipPath id="SVGID_8_">
		<use xlink:href="#SVGID_7_"  style="overflow:visible;"/>
	</clipPath>
	
		<linearGradient id="SVGID_9_" gradientUnits="userSpaceOnUse" x1="25.8969" y1="719.3663" x2="28.879" y2="719.3663" gradientTransform="matrix(-17.5689 0 0 17.5689 621.072 -12318.6768)">
		<stop  offset="0" style="stop-color:#ED2124"/>
		<stop  offset="0.5499" style="stop-color:#E87656"/>
		<stop  offset="1" style="stop-color:#E5B87D"/>
	</linearGradient>
	<rect x="101.1" y="199.2" class="st2" width="75.5" height="241.2"/>
</g>
<g>
	<defs>
		<path id="SVGID_10_" d="M54.3,404.8c7.5,36.4,45.4,38.6,58.3,35.8c-12.4-1.6-25.9-8.3-28.7-22.4c8.3-5.6,13.8-15.2,14.2-26.5
			c0.2-11.3-5-21.4-13.2-27.7l-0.2,0.1c-0.8-0.4-2.1-0.6-3.5-0.6C70.8,363.5,48.3,375.7,54.3,404.8"/>
	</defs>
	<clipPath id="SVGID_11_">
		<use xlink:href="#SVGID_10_"  style="overflow:visible;"/>
	</clipPath>
	
		<linearGradient id="SVGID_12_" gradientUnits="userSpaceOnUse" x1="26.9964" y1="723.8292" x2="29.9785" y2="723.8292" gradientTransform="matrix(-19.8899 0 0 19.8899 649.5517 -13993.4219)">
		<stop  offset="0" style="stop-color:#ED2124"/>
		<stop  offset="5.000310e-002" style="stop-color:#ED2124"/>
		<stop  offset="0.5449" style="stop-color:#E87656"/>
		<stop  offset="0.95" style="stop-color:#E5B87D"/>
		<stop  offset="1" style="stop-color:#E5B87D"/>
	</linearGradient>
	<rect x="48.3" y="363.5" class="st3" width="64.3" height="79.8"/>
</g>
<g>
	<path class="st4" d="M197.6,397.6l0.2-19h33.1c24.7,0.2,29.7-8.6,29.4-24.4v-65.8h28.1v66.9c-0.4,31.8-16.1,42.5-47.9,42.5
		L197.6,397.6z"/>
	<path class="st4" d="M454.4,378.3c35.9,0,51.8-11,51.8-36.2c0-26.6-16.5-35.5-51.8-35.5h-6.2v71.6H454.4z M420.4,288.4h51.9
		c34.1,0,61.4,14.4,61.4,53.4c0,36.8-24.9,54.5-60.5,54.5h-52.8V288.4z"/>
</g>
<polygon class="st4" points="543.5,287.7 632.2,287.7 632.2,306 572.9,306 572.9,331 632.6,331 632.6,349 572.9,349 572.9,377.5 
	634,377.5 634,395.6 543.5,395.6 "/>
<path class="st4" d="M332.8,365.6l18.9-33.3l17.4,33.3H332.8z M385.2,396.3h30.6L351.7,283l-65.4,113.3h29.2l7.2-12.9h55.7
	L385.2,396.3z"/>
</svg>
